<?xml version="1.0" encoding="utf-8"?><svg version="1.1" id="Layer_1" xmlns="http://www.w3.org/2000/svg" xmlns:xlink="http://www.w3.org/1999/xlink" x="0px" y="0px" viewBox="0 0 122.88 35.717" enable-background="new 0 0 122.88 35.717" xml:space="preserve"><g><path fill-rule="evenodd" clip-rule="evenodd" fill="#FF0000" d="M120.226,0H2.655C1.193,0,0,1.193,0,2.655v30.408 c0,1.461,1.193,2.654,2.655,2.654h117.571c1.461,0,2.654-1.193,2.654-2.654V2.655C122.88,1.193,121.687,0,120.226,0L120.226,0 L120.226,0L120.226,0z"/><polygon fill="#DB0000" points="31.934,34.785 31.934,0 33.674,0 33.674,34.785 31.934,34.785"/><path fill="#C20000" d="M47.519,25.775l0.123,2.605h-3.066l0.153-2.605l-0.015-0.477l-3.174-6.836h3.22l0.245,0.828l1.119,2.988 h0.184l1.288-2.881l0.353-0.936h3.127l-3.526,6.73L47.519,25.775L47.519,25.775z M55.307,18.278c1.441,0,2.555,0.427,3.342,1.28 c0.787,0.854,1.18,2.057,1.18,3.609c0,1.719-0.432,3.047-1.295,3.986c-0.864,0.941-2.087,1.412-3.672,1.412 c-1.441,0-2.555-0.434-3.342-1.297s-1.18-2.088-1.18-3.672c0-1.695,0.432-3.008,1.295-3.932 C52.499,18.74,53.723,18.278,55.307,18.278L55.307,18.278z M55.031,20.73c-0.398,0-0.7,0.07-0.905,0.207 c-0.204,0.139-0.35,0.381-0.437,0.729s-0.13,0.854-0.13,1.518c0,0.85,0.046,1.492,0.138,1.932s0.248,0.746,0.468,0.92 s0.544,0.262,0.974,0.262c0.398,0,0.7-0.07,0.904-0.207c0.204-0.139,0.35-0.383,0.437-0.736s0.13-0.861,0.13-1.525 c0-0.838-0.046-1.477-0.138-1.916c-0.092-0.439-0.248-0.746-0.468-0.92C55.785,20.818,55.46,20.73,55.031,20.73L55.031,20.73z M69.289,23.49l-0.016,1.58c-0.01,1.123-0.389,1.988-1.135,2.59c-0.745,0.604-1.813,0.906-3.204,0.906 c-1.339,0-2.363-0.303-3.073-0.906c-0.71-0.602-1.05-1.467-1.02-2.59l0.046-1.58l-0.092-5.027h3.081l-0.138,6.193 c-0.01,0.521,0.089,0.898,0.299,1.135c0.21,0.234,0.55,0.352,1.02,0.352c0.48,0,0.828-0.117,1.043-0.352 c0.214-0.236,0.316-0.613,0.306-1.135l-0.138-6.193h3.128L69.289,23.49L69.289,23.49z M77.966,18.677l-0.168,2.239l-2.023-0.092 H75.59l-0.076,4.338l0.122,3.219H72.57l0.153-2.912l-0.077-4.645h-0.199l-2.039,0.092l-0.184-0.215l0.168-2.238h7.405 L77.966,18.677L77.966,18.677z M87.257,23.49l-0.016,1.58c-0.01,1.123-0.388,1.988-1.134,2.59 c-0.747,0.604-1.814,0.906-3.204,0.906c-1.34,0-2.364-0.303-3.074-0.906c-0.711-0.602-1.05-1.467-1.02-2.59l0.046-1.58 l-0.092-5.027h3.081l-0.138,6.193c-0.01,0.521,0.09,0.898,0.299,1.135c0.21,0.234,0.55,0.352,1.02,0.352 c0.48,0,0.828-0.117,1.042-0.352c0.215-0.236,0.317-0.613,0.308-1.135l-0.138-6.193h3.127L87.257,23.49L87.257,23.49z M95.489,23.275c0.644,0.186,1.111,0.459,1.402,0.822c0.292,0.361,0.438,0.834,0.438,1.416c0,1.033-0.422,1.787-1.265,2.262 c-0.843,0.477-2.104,0.713-3.779,0.713c-0.93,0-2.028-0.035-3.296-0.107l0.153-2.912l-0.153-7.006l4.431-0.016 c1.124,0,2.003,0.217,2.637,0.652c0.634,0.434,0.951,1.064,0.951,1.893c0,0.512-0.131,0.963-0.392,1.357 C96.355,22.742,95.98,23.051,95.489,23.275L95.489,23.275z M93.88,21.436c0-0.357-0.125-0.605-0.376-0.742 c-0.25-0.139-0.718-0.207-1.402-0.207h-0.138l-0.062,2.023l1.149,0.047c0.286-0.094,0.496-0.227,0.629-0.4 C93.813,21.984,93.88,21.742,93.88,21.436L93.88,21.436z M92.868,26.465c0.419,0,0.748-0.092,0.988-0.275s0.36-0.449,0.36-0.797 c0-0.236-0.068-0.424-0.207-0.568c-0.138-0.143-0.36-0.266-0.667-0.367l-1.486,0.029l-0.016,0.676l0.046,1.242 C92.397,26.445,92.725,26.465,92.868,26.465L92.868,26.465z M105.639,25.928l0.169,0.215l-0.185,2.238h-6.991l0.154-2.912 l-0.154-7.006h7.114l0.169,0.214l-0.2,2.239l-2.438-0.092h-1.579l-0.03,1.395h1.518l1.595-0.047l0.168,0.215l-0.184,2.238 l-1.778-0.045h-1.38l-0.015,0.582l0.03,0.859h1.472L105.639,25.928L105.639,25.928z"/><path fill="#C20000" d="M43.312,9.295l-0.026,1.321h0.713l0.986-0.026l0.079,0.105l-0.088,1.057l-1.083-0.026h-0.625l-0.009,0.308 l0.053,1.823h-1.436l0.079-1.683l-0.079-3.999h3.558l0.079,0.106l-0.097,1.057l-1.374-0.053L43.312,9.295L43.312,9.295z M48.898,8.088c0.811,0,1.436,0.242,1.876,0.727c0.441,0.484,0.661,1.173,0.661,2.065c0,0.975-0.241,1.73-0.723,2.268 c-0.481,0.538-1.16,0.806-2.034,0.806c-0.805,0-1.427-0.248-1.867-0.744c-0.44-0.496-0.661-1.199-0.661-2.109 c0-0.963,0.239-1.706,0.718-2.228C47.347,8.35,48.023,8.088,48.898,8.088L48.898,8.088z M48.775,9.233 c-0.276,0-0.496,0.054-0.661,0.163c-0.164,0.109-0.285,0.285-0.361,0.529c-0.077,0.244-0.115,0.574-0.115,0.991 c0,0.499,0.038,0.891,0.115,1.176c0.076,0.285,0.198,0.489,0.365,0.612s0.395,0.185,0.683,0.185c0.282,0,0.505-0.055,0.669-0.163 c0.165-0.109,0.283-0.286,0.356-0.533c0.074-0.246,0.11-0.584,0.11-1.013c0-0.493-0.038-0.881-0.114-1.163 c-0.077-0.282-0.197-0.483-0.361-0.604C49.297,9.293,49.068,9.233,48.775,9.233L48.775,9.233z M56.026,12.792l-0.097,1.066h-3.197 l0.079-1.683l-0.079-3.999h1.453l-0.079,3.858l0.026,0.652h1.806L56.026,12.792L56.026,12.792z M60.485,12.792l-0.097,1.066h-3.197 l0.079-1.683l-0.079-3.999h1.453l-0.079,3.858l0.026,0.652h1.806L60.485,12.792L60.485,12.792z M63.781,8.088 c0.811,0,1.436,0.242,1.876,0.727s0.66,1.173,0.66,2.065c0,0.975-0.24,1.73-0.722,2.268c-0.481,0.538-1.16,0.806-2.034,0.806 c-0.805,0-1.427-0.248-1.868-0.744c-0.44-0.496-0.66-1.199-0.66-2.109c0-0.963,0.239-1.706,0.718-2.228 C62.229,8.35,62.906,8.088,63.781,8.088L63.781,8.088z M63.658,9.233c-0.276,0-0.496,0.054-0.661,0.163 c-0.164,0.109-0.284,0.285-0.361,0.529c-0.076,0.244-0.113,0.574-0.113,0.991c0,0.499,0.037,0.891,0.113,1.176 c0.077,0.285,0.198,0.489,0.366,0.612c0.167,0.124,0.395,0.185,0.683,0.185c0.281,0,0.505-0.055,0.669-0.163 c0.165-0.109,0.283-0.286,0.356-0.533c0.074-0.246,0.11-0.584,0.11-1.013c0-0.493-0.038-0.881-0.114-1.163 s-0.196-0.483-0.361-0.604C64.181,9.293,63.951,9.233,63.658,9.233L63.658,9.233z M73.04,13.857h-1.506l-0.713-2.449h-0.089 l-0.704,2.449h-1.515l-1.488-5.681h1.392l0.088,0.775l0.818,3.452h0.089l0.837-2.871l-0.353-1.356h1.444l0.123,0.917l0.854,3.311 h0.088l0.96-3.373l0.15-0.854h1.32L73.04,13.857L73.04,13.857z M82.425,11.057l-0.009,0.819c0.007,0.664-0.198,1.175-0.611,1.533 c-0.414,0.358-1.003,0.537-1.767,0.537c-0.739,0-1.305-0.176-1.695-0.528c-0.39-0.352-0.577-0.857-0.56-1.515l0.019-0.863 l-0.036-2.863h1.427l-0.062,3.532c-0.006,0.375,0.07,0.651,0.229,0.828c0.158,0.176,0.405,0.264,0.74,0.264 c0.34,0,0.591-0.086,0.753-0.26c0.161-0.173,0.239-0.439,0.233-0.797l-0.063-3.567h1.454L82.425,11.057L82.425,11.057z M86.109,8.088c0.505,0,1.016,0.1,1.532,0.299l-0.229,1.198l-0.212,0.079c-0.223-0.147-0.446-0.261-0.669-0.344 c-0.224-0.082-0.417-0.123-0.582-0.123c-0.193,0-0.348,0.048-0.462,0.145c-0.114,0.097-0.172,0.21-0.172,0.339 c0,0.147,0.072,0.271,0.216,0.374c0.144,0.103,0.372,0.225,0.683,0.366c0.329,0.153,0.595,0.292,0.797,0.418 c0.203,0.126,0.379,0.295,0.528,0.506c0.15,0.211,0.225,0.47,0.225,0.775c0,0.341-0.092,0.649-0.277,0.925 c-0.185,0.276-0.447,0.495-0.788,0.656s-0.733,0.242-1.18,0.242c-0.594,0-1.181-0.117-1.762-0.352l0.202-1.277l0.15-0.088 c0.246,0.205,0.515,0.365,0.806,0.48c0.29,0.114,0.541,0.172,0.753,0.172c0.223,0,0.392-0.05,0.507-0.15 c0.114-0.1,0.171-0.217,0.171-0.353c0-0.158-0.073-0.291-0.22-0.396c-0.146-0.106-0.376-0.229-0.688-0.37 c-0.316-0.146-0.576-0.283-0.779-0.41c-0.202-0.126-0.377-0.295-0.524-0.506c-0.146-0.211-0.22-0.47-0.22-0.775 c0-0.347,0.093-0.659,0.277-0.938c0.186-0.279,0.443-0.498,0.775-0.656S85.681,8.088,86.109,8.088L86.109,8.088z M93.406,8.088 c0.811,0,1.437,0.242,1.876,0.727c0.44,0.484,0.661,1.173,0.661,2.065c0,0.975-0.241,1.73-0.723,2.268 c-0.481,0.538-1.159,0.806-2.034,0.806c-0.805,0-1.427-0.248-1.867-0.744c-0.44-0.496-0.66-1.199-0.66-2.109 c0-0.963,0.238-1.706,0.717-2.228C91.854,8.35,92.532,8.088,93.406,8.088L93.406,8.088z M93.283,9.233 c-0.275,0-0.496,0.054-0.66,0.163c-0.165,0.109-0.285,0.285-0.361,0.529s-0.114,0.574-0.114,0.991c0,0.499,0.038,0.891,0.114,1.176 c0.076,0.285,0.198,0.489,0.365,0.612s0.395,0.185,0.683,0.185c0.282,0,0.505-0.055,0.67-0.163 c0.164-0.109,0.283-0.286,0.356-0.533c0.073-0.246,0.11-0.584,0.11-1.013c0-0.493-0.039-0.881-0.115-1.163 s-0.196-0.483-0.361-0.604C93.806,9.293,93.577,9.233,93.283,9.233L93.283,9.233z M102.138,12.061l0.053,1.797h-1.551l-2.017-3.515 h-0.088l-0.009,1.515l0.053,2h-1.295l0.07-1.673l-0.07-4.008h1.541l2.026,3.515h0.088l-0.035-3.461l1.313-0.08L102.138,12.061 L102.138,12.061z"/><path fill="#FFFFFF" d="M43.312,8.968l-0.026,1.321h0.713l0.986-0.026l0.079,0.105l-0.088,1.057l-1.083-0.026h-0.625l-0.009,0.308 l0.053,1.823h-1.436l0.079-1.682l-0.079-3.999h3.558l0.079,0.106l-0.097,1.057l-1.374-0.053L43.312,8.968L43.312,8.968z M48.898,7.761c0.811,0,1.436,0.242,1.876,0.727c0.441,0.484,0.661,1.173,0.661,2.065c0,0.975-0.241,1.73-0.723,2.268 c-0.481,0.538-1.16,0.806-2.034,0.806c-0.805,0-1.427-0.248-1.867-0.744c-0.44-0.496-0.661-1.199-0.661-2.109 c0-0.963,0.239-1.706,0.718-2.228C47.347,8.022,48.023,7.761,48.898,7.761L48.898,7.761z M48.775,8.906 c-0.276,0-0.496,0.054-0.661,0.163c-0.164,0.109-0.285,0.285-0.361,0.529c-0.077,0.244-0.115,0.574-0.115,0.991 c0,0.499,0.038,0.891,0.115,1.176c0.076,0.285,0.198,0.489,0.365,0.612s0.395,0.185,0.683,0.185c0.282,0,0.505-0.055,0.669-0.163 s0.283-0.286,0.356-0.533c0.074-0.247,0.11-0.584,0.11-1.013c0-0.493-0.038-0.881-0.114-1.163 c-0.077-0.282-0.197-0.483-0.361-0.604C49.297,8.966,49.068,8.906,48.775,8.906L48.775,8.906z M56.026,12.464l-0.097,1.066h-3.197 l0.079-1.682l-0.079-3.999h1.453l-0.079,3.858l0.026,0.652h1.806L56.026,12.464L56.026,12.464z M60.485,12.464l-0.097,1.066h-3.197 l0.079-1.682l-0.079-3.999h1.453l-0.079,3.858l0.026,0.652h1.806L60.485,12.464L60.485,12.464z M63.781,7.761 c0.811,0,1.436,0.242,1.876,0.727s0.66,1.173,0.66,2.065c0,0.975-0.24,1.73-0.722,2.268c-0.481,0.538-1.16,0.806-2.034,0.806 c-0.805,0-1.427-0.248-1.868-0.744c-0.44-0.496-0.66-1.199-0.66-2.109c0-0.963,0.239-1.706,0.718-2.228 C62.229,8.022,62.906,7.761,63.781,7.761L63.781,7.761z M63.658,8.906c-0.276,0-0.496,0.054-0.661,0.163 c-0.164,0.109-0.284,0.285-0.361,0.529c-0.076,0.244-0.113,0.574-0.113,0.991c0,0.499,0.037,0.891,0.113,1.176 c0.077,0.285,0.198,0.489,0.366,0.612c0.167,0.124,0.395,0.185,0.683,0.185c0.281,0,0.505-0.055,0.669-0.163 c0.165-0.108,0.283-0.286,0.356-0.533c0.074-0.247,0.11-0.584,0.11-1.013c0-0.493-0.038-0.881-0.114-1.163 s-0.196-0.483-0.361-0.604C64.181,8.966,63.951,8.906,63.658,8.906L63.658,8.906z M73.04,13.53h-1.506l-0.713-2.449h-0.089 l-0.704,2.449h-1.515l-1.488-5.681h1.392l0.088,0.775l0.818,3.453h0.089l0.837-2.872l-0.353-1.356h1.444l0.123,0.917l0.854,3.312 h0.088l0.96-3.374l0.15-0.854h1.32L73.04,13.53L73.04,13.53z M82.425,10.729l-0.009,0.819c0.007,0.664-0.198,1.175-0.611,1.533 c-0.414,0.358-1.003,0.538-1.767,0.538c-0.739,0-1.305-0.177-1.695-0.529c-0.39-0.352-0.577-0.857-0.56-1.515l0.019-0.863 l-0.036-2.863h1.427l-0.062,3.532c-0.006,0.375,0.07,0.651,0.229,0.828c0.158,0.176,0.405,0.264,0.74,0.264 c0.34,0,0.591-0.086,0.753-0.26c0.161-0.173,0.239-0.439,0.233-0.797l-0.063-3.567h1.454L82.425,10.729L82.425,10.729z M86.109,7.761c0.505,0,1.016,0.1,1.532,0.299l-0.229,1.198l-0.212,0.079c-0.223-0.147-0.446-0.261-0.669-0.344 c-0.224-0.082-0.417-0.123-0.582-0.123c-0.193,0-0.348,0.048-0.462,0.145c-0.114,0.097-0.172,0.21-0.172,0.339 c0,0.147,0.072,0.271,0.216,0.374c0.144,0.103,0.372,0.225,0.683,0.366c0.329,0.153,0.595,0.292,0.797,0.418 c0.203,0.126,0.379,0.295,0.528,0.506c0.15,0.211,0.225,0.47,0.225,0.775c0,0.34-0.092,0.648-0.277,0.924 c-0.185,0.276-0.447,0.495-0.788,0.656s-0.733,0.243-1.18,0.243c-0.594,0-1.181-0.118-1.762-0.353l0.202-1.277l0.15-0.088 c0.246,0.205,0.515,0.365,0.806,0.48c0.29,0.114,0.541,0.172,0.753,0.172c0.223,0,0.392-0.05,0.507-0.15 c0.114-0.1,0.171-0.217,0.171-0.352c0-0.159-0.073-0.291-0.22-0.396c-0.146-0.106-0.376-0.229-0.688-0.37 c-0.316-0.146-0.576-0.283-0.779-0.41c-0.202-0.126-0.377-0.295-0.524-0.506c-0.146-0.211-0.22-0.47-0.22-0.775 c0-0.347,0.093-0.659,0.277-0.938c0.186-0.279,0.443-0.498,0.775-0.656S85.681,7.761,86.109,7.761L86.109,7.761z M93.406,7.761 c0.811,0,1.437,0.242,1.876,0.727c0.44,0.484,0.661,1.173,0.661,2.065c0,0.975-0.241,1.73-0.723,2.268 c-0.481,0.538-1.159,0.806-2.034,0.806c-0.805,0-1.427-0.248-1.867-0.744c-0.44-0.496-0.66-1.199-0.66-2.109 c0-0.963,0.238-1.706,0.717-2.228C91.854,8.022,92.532,7.761,93.406,7.761L93.406,7.761z M93.283,8.906 c-0.275,0-0.496,0.054-0.66,0.163c-0.165,0.109-0.285,0.285-0.361,0.529s-0.114,0.574-0.114,0.991c0,0.499,0.038,0.891,0.114,1.176 c0.076,0.285,0.198,0.489,0.365,0.612s0.395,0.185,0.683,0.185c0.282,0,0.505-0.055,0.67-0.163 c0.164-0.108,0.283-0.286,0.356-0.533s0.11-0.584,0.11-1.013c0-0.493-0.039-0.881-0.115-1.163s-0.196-0.483-0.361-0.604 C93.806,8.966,93.577,8.906,93.283,8.906L93.283,8.906z M102.138,11.733l0.053,1.797h-1.551l-2.017-3.515h-0.088l-0.009,1.515 l0.053,2h-1.295l0.07-1.673l-0.07-4.008h1.541l2.026,3.515h0.088l-0.035-3.461l1.313-0.08L102.138,11.733L102.138,11.733z"/><path fill="#FFFFFF" d="M47.519,25.326l0.123,2.607h-3.066l0.153-2.607l-0.015-0.475l-3.174-6.838h3.22l0.245,0.828l1.119,2.99 h0.184l1.288-2.883l0.353-0.936h3.127l-3.526,6.73L47.519,25.326L47.519,25.326z M55.307,17.83c1.441,0,2.555,0.427,3.342,1.279 c0.787,0.854,1.18,2.059,1.18,3.611c0,1.717-0.432,3.045-1.295,3.986c-0.864,0.939-2.087,1.41-3.672,1.41 c-1.441,0-2.555-0.432-3.342-1.295c-0.787-0.865-1.18-2.088-1.18-3.672c0-1.697,0.432-3.008,1.295-3.934 C52.499,18.293,53.723,17.83,55.307,17.83L55.307,17.83z M55.031,20.283c-0.398,0-0.7,0.068-0.905,0.207 c-0.204,0.137-0.35,0.381-0.437,0.729s-0.13,0.854-0.13,1.518c0,0.848,0.046,1.492,0.138,1.932s0.248,0.746,0.468,0.92 s0.544,0.26,0.974,0.26c0.398,0,0.7-0.068,0.904-0.207c0.204-0.137,0.35-0.383,0.437-0.734c0.087-0.354,0.13-0.861,0.13-1.527 c0-0.838-0.046-1.477-0.138-1.916c-0.092-0.439-0.248-0.746-0.468-0.92C55.785,20.369,55.46,20.283,55.031,20.283L55.031,20.283z M69.289,23.043l-0.016,1.578c-0.01,1.125-0.389,1.988-1.135,2.592c-0.745,0.604-1.813,0.904-3.204,0.904 c-1.339,0-2.363-0.301-3.073-0.904c-0.71-0.604-1.05-1.467-1.02-2.592l0.046-1.578l-0.092-5.029h3.081l-0.138,6.193 c-0.01,0.521,0.089,0.9,0.299,1.135c0.21,0.236,0.55,0.354,1.02,0.354c0.48,0,0.828-0.117,1.043-0.354 c0.214-0.234,0.316-0.613,0.306-1.135l-0.138-6.193h3.128L69.289,23.043L69.289,23.043z M77.966,18.229l-0.168,2.238l-2.023-0.092 H75.59l-0.076,4.338l0.122,3.221H72.57l0.153-2.914l-0.077-4.645h-0.199l-2.039,0.092l-0.184-0.215l0.168-2.238h7.405 L77.966,18.229L77.966,18.229z M87.257,23.043l-0.016,1.578c-0.01,1.125-0.388,1.988-1.134,2.592 c-0.747,0.604-1.814,0.904-3.204,0.904c-1.34,0-2.364-0.301-3.074-0.904c-0.711-0.604-1.05-1.467-1.02-2.592l0.046-1.578 l-0.092-5.029h3.081l-0.138,6.193c-0.01,0.521,0.09,0.9,0.299,1.135c0.21,0.236,0.55,0.354,1.02,0.354 c0.48,0,0.828-0.117,1.042-0.354c0.215-0.234,0.317-0.613,0.308-1.135l-0.138-6.193h3.127L87.257,23.043L87.257,23.043z M95.489,22.828c0.644,0.184,1.111,0.457,1.402,0.82c0.292,0.363,0.438,0.836,0.438,1.418c0,1.031-0.422,1.785-1.265,2.262 c-0.843,0.475-2.104,0.713-3.779,0.713c-0.93,0-2.028-0.037-3.296-0.107l0.153-2.914l-0.153-7.006l4.431-0.015 c1.124,0,2.003,0.218,2.637,0.652s0.951,1.064,0.951,1.893c0,0.512-0.131,0.965-0.392,1.357 C96.355,22.295,95.98,22.604,95.489,22.828L95.489,22.828z M93.88,20.988c0-0.357-0.125-0.605-0.376-0.744 c-0.25-0.137-0.718-0.207-1.402-0.207h-0.138l-0.062,2.023l1.149,0.047c0.286-0.092,0.496-0.225,0.629-0.398 S93.88,21.295,93.88,20.988L93.88,20.988z M92.868,26.016c0.419,0,0.748-0.092,0.988-0.275s0.36-0.449,0.36-0.797 c0-0.234-0.068-0.424-0.207-0.566c-0.138-0.145-0.36-0.266-0.667-0.369l-1.486,0.031l-0.016,0.674l0.046,1.242 C92.397,25.996,92.725,26.016,92.868,26.016L92.868,26.016z M105.639,25.48l0.169,0.215l-0.185,2.238h-6.991l0.154-2.914 l-0.154-7.006h7.114l0.169,0.215l-0.2,2.238l-2.438-0.092h-1.579l-0.03,1.395h1.518l1.595-0.045l0.168,0.215l-0.184,2.238 l-1.778-0.047h-1.38l-0.015,0.582l0.03,0.859h1.472L105.639,25.48L105.639,25.48z"/><path fill="#AB0303" d="M0.409,32.336c0,0.674,0.275,1.287,0.719,1.73c0.443,0.443,1.056,0.719,1.731,0.719h117.161 c0.675,0,1.288-0.275,1.73-0.719c0.444-0.443,0.72-1.057,0.72-1.73l0.409-30.088v30.088c0,0.787-0.321,1.502-0.839,2.02 c-0.519,0.518-1.234,0.84-2.021,0.84H2.859c-0.787,0-1.501-0.322-2.02-0.84C0.322,33.838,0,33.123,0,32.336V2.248L0.409,32.336 L0.409,32.336z"/><path fill-rule="evenodd" clip-rule="evenodd" fill="#FFFFFF" d="M27.03,13.915c0,0-0.192-1.36-0.786-1.957 c-0.751-0.785-1.592-0.79-1.976-0.836c-2.759-0.201-6.901-0.201-6.901-0.201h-0.008c0,0-4.141,0-6.901,0.201 c-0.386,0.047-1.226,0.05-1.977,0.836C7.889,12.555,7.7,13.915,7.7,13.915s-0.196,1.596-0.196,3.195v1.495 c0,1.595,0.196,3.194,0.196,3.194s0.192,1.359,0.782,1.959c0.75,0.785,1.737,0.76,2.178,0.844c1.579,0.15,6.708,0.195,6.708,0.195 s4.146-0.008,6.905-0.205c0.386-0.045,1.225-0.049,1.977-0.836c0.593-0.596,0.785-1.957,0.785-1.957s0.197-1.596,0.197-3.195 v-1.496C27.228,15.513,27.031,13.914,27.03,13.915L27.03,13.915L27.03,13.915L27.03,13.915L27.03,13.915z M15.323,20.418v-5.544 l5.329,2.782L15.323,20.418L15.323,20.418z"/></g></svg>